<svg width="283" height="162" viewBox="0 0 283 162" fill="none" xmlns="http://www.w3.org/2000/svg">
<path fill-rule="evenodd" clip-rule="evenodd" d="M154.198 35.0145C154.023 33.8478 153.779 32.681 153.455 31.521C153.134 30.362 152.742 29.2539 152.295 28.1812L157.118 21.6553L155.816 19.5828L154.515 17.5181L147.503 20.5472C145.98 18.8684 144.263 17.444 142.413 16.2917L142.929 7.80177L140.802 6.99336L138.675 6.19269L134.576 13.3069C132.505 12.963 130.379 12.9364 128.241 13.2472L124.256 6.0434L122.115 6.80314L119.974 7.56953L120.354 16.0595C118.446 17.1974 116.711 18.5953 115.188 20.2187L108.229 17.047L106.895 19.0885L105.564 21.1278L110.281 27.751C109.342 29.8942 108.659 32.1801 108.262 34.5434L100.98 36.6114L100.96 39.1505L100.937 41.6908L108.19 43.9125C108.368 45.0748 108.61 46.2382 108.933 47.4016C109.256 48.5617 109.647 49.6753 110.092 50.7458L105.271 57.2684L106.575 59.3397L107.877 61.4044L114.888 58.3754C116.415 60.0541 118.132 61.4862 119.981 62.6308L119.467 71.1208L121.593 71.9292L123.721 72.7376L127.822 65.6201C129.89 65.9596 132.014 65.9861 134.149 65.6754L138.144 72.8869L140.279 72.1194L142.42 71.3607L142.04 62.8597C143.949 61.7295 145.684 60.3273 147.199 58.7038L154.165 61.8799L155.499 59.8418L156.833 57.7992L152.11 51.1716C153.048 49.025 153.732 46.7436 154.132 44.3792L161.411 42.3112L161.431 39.772L161.451 37.2318L154.198 35.0145ZM117.339 23.6105C118.145 22.8253 119.36 22.9271 120.054 23.8317C120.752 24.7441 120.661 26.1209 119.859 26.9061C119.056 27.6946 117.841 27.5939 117.14 26.6849C116.448 25.7758 116.537 24.4001 117.339 23.6105ZM119.255 55.3529C118.452 56.1381 117.237 56.0408 116.543 55.1318C115.846 54.2194 115.932 52.847 116.738 52.0541C117.541 51.2689 118.756 51.3662 119.453 52.2786C120.146 53.1909 120.06 54.5633 119.255 55.3529ZM144.854 56.2841C144.052 57.0737 142.837 56.9764 142.143 56.064C141.443 55.155 141.531 53.7748 142.337 52.9897C143.141 52.2045 144.356 52.3007 145.049 53.2142C145.742 54.1188 145.657 55.4945 144.854 56.2841ZM132.605 56.5352C124.278 57.4099 116.896 50.487 116.117 41.0582C115.341 31.6293 121.461 23.271 129.79 22.3874C138.113 21.5093 145.491 28.4388 146.271 37.8644C147.05 47.2965 140.935 55.6527 132.605 56.5352ZM145.961 27.8671C145.156 28.6567 143.943 28.5516 143.246 27.647C142.552 26.7347 142.639 25.3578 143.445 24.5726C144.246 23.7863 145.459 23.8837 146.159 24.7927C146.852 25.7017 146.767 27.0786 145.961 27.8671Z" fill="url(#paint0_linear_252_97)"/>
<path d="M118.612 122.563C113.664 130.358 104.041 132.138 97.1571 126.536C90.2751 120.932 88.7028 110.035 93.6502 102.244C98.5975 94.4526 108.219 92.6688 115.105 98.2713C121.989 103.87 123.561 114.769 118.612 122.563ZM94.6639 103.07C90.1159 110.228 91.5622 120.241 97.8875 125.391C104.212 130.537 113.054 128.899 117.599 121.741C122.144 114.574 120.696 104.563 114.375 99.4158C108.051 94.2734 99.2089 95.908 94.6639 103.07Z" fill="#262350"/>
<path d="M89.9736 99.2477C83.5702 109.338 85.6044 123.446 94.5157 130.702C103.427 137.95 115.885 135.646 122.286 125.556C128.693 115.472 126.656 101.361 117.748 94.1086C108.836 86.8562 96.378 89.1642 89.9736 99.2477ZM119.755 123.499C114.355 132 103.849 133.941 96.3389 127.83C88.829 121.714 87.1073 109.817 92.5068 101.312C97.9112 92.807 108.413 90.8629 115.924 96.974C123.435 103.093 125.156 114.986 119.755 123.499Z" fill="#262350"/>
<path fill-rule="evenodd" clip-rule="evenodd" d="M144.757 41.182C136.896 41.0803 134.598 42.0457 120.339 42.884C106.414 43.7101 102.302 44.6943 97.7572 44.6037C93.2074 44.5141 92.011 43.0665 91.7698 40.6246C91.5325 38.1862 92.3421 35.6802 97.1967 34.9326C100.628 34.4084 116.75 33.6984 130.714 33.2494C144.678 32.796 148.591 32.7673 166.303 32.2243C184.019 31.6824 224.399 31.6824 231.262 32.2243C238.126 32.7673 241.158 36.0164 241.158 39.4502C241.158 42.884 240.517 45.9727 233.495 44.6114C226.473 43.25 190.725 40.9011 184.019 41.0803C177.315 41.2605 173.326 47.4016 173.646 53.5503C173.967 59.6914 175.561 90.6 175.72 104.154C175.882 117.712 175.561 135.601 172.53 145.182C169.498 154.757 162.793 159.642 153.856 158.917C144.922 158.194 135.66 154.219 116.67 131.988C97.6762 109.756 90.4954 93.128 88.7385 87.5289C86.9846 81.9231 90.9212 80.24 93.4183 85.2364C95.9223 90.2406 112.839 119.394 126.033 131.685C139.228 143.978 151.356 154.099 161.357 140.605C166.859 133.18 165.62 111.312 164.731 91.3254C163.913 72.8869 161.964 60.9819 161.303 55.9932C159.847 44.9067 151.729 41.2683 144.757 41.182Z" fill="#E4262A"/>
<path fill-rule="evenodd" clip-rule="evenodd" d="M248.505 124.037V97.7367H278.111V86.1713H248.505V63.537H282.022V51.9726H248.505V51.9196H238.29V135.601H241.164H248.505H283V124.037H248.505Z" fill="#E4262A"/>
<path d="M220.763 135.601H233.178L214.954 99.86C223.753 96.5468 230.083 87.38 230.083 76.5821C230.083 62.9907 220.069 51.9726 207.72 51.9726H194.556V51.9196H184.34V51.9726V101.185V135.601H194.556V101.185H203.216L220.763 135.601ZM194.556 63.245H207.72C214.557 63.245 218.844 69.229 218.844 76.5821C218.844 83.9274 214.557 89.9048 207.72 89.9048H194.556V63.245Z" fill="#E4262A"/>
<path d="M44.1511 67.3526C35.4811 67.3526 28.4233 59.3626 28.4233 49.5411C28.4233 39.7197 35.4811 31.7318 44.1511 31.7318C52.8241 31.7318 59.878 39.7197 59.878 49.5411C59.878 59.3626 52.8241 67.3526 44.1511 67.3526ZM44.1511 33.1783C36.1852 33.1783 29.7017 40.5203 29.7017 49.5411C29.7017 58.563 36.1852 65.9083 44.1511 65.9083C52.1239 65.9083 58.6035 58.563 58.6035 49.5411C58.6035 40.5203 52.1239 33.1783 44.1511 33.1783Z" fill="#262350"/>
<path fill-rule="evenodd" clip-rule="evenodd" d="M78.0511 46.6245C77.9319 44.907 77.721 43.1763 77.3909 41.4478C77.0676 39.7126 76.6302 38.0372 76.1126 36.4204L83.8842 27.6949L82.2455 24.4978L80.6078 21.2962L70.0724 24.6139C68.0636 21.9464 65.7452 19.613 63.1993 17.6611L64.963 5.4233L61.9737 3.92703L58.9883 2.43076L52.1913 12.125C49.2313 11.3067 46.1463 10.9439 43.0095 11.0667L38.0846 0L34.8941 0.781867L31.7007 1.55599L31.232 13.9354C28.3247 15.2823 25.643 17.0507 23.2426 19.1718L13.5285 13.5096L11.3488 16.2577L9.17299 19.0147L15.22 29.3449C13.6047 32.3065 12.34 35.5158 11.4748 38.8898L0.667988 40.771L0.333982 44.4547L0 48.1274L10.256 52.458C10.3713 54.1788 10.5861 55.9073 10.9123 57.6425C11.2433 59.3699 11.6789 61.0453 12.1936 62.6688L4.41902 71.3909L6.06163 74.5881L7.70228 77.7863L18.2386 74.4731C20.2464 77.1427 22.5648 79.4772 25.1147 81.4291L23.351 93.6669L26.3432 95.1632L29.3286 96.6584L36.1256 86.9641C39.0846 87.7803 42.1667 88.1386 45.3015 88.0191L50.2284 99.0902L53.4188 98.3117L56.6161 97.5342L57.0859 85.1471C59.9844 83.8002 62.6641 82.0318 65.0645 79.9107L74.7854 85.584L76.9612 82.8314L79.1448 80.0755L73.091 69.7376C74.7024 66.7749 75.971 63.5667 76.8294 60.1927L87.6362 58.316L87.9721 54.6355L88.3032 50.9551L78.0511 46.6245ZM42.5534 17.3769C44.072 17.3769 45.3015 18.7681 45.3015 20.4811C45.3015 22.2008 44.072 23.5931 42.5534 23.5931C41.0368 23.5931 39.8122 22.2008 39.8122 20.4811C39.8122 18.7681 41.0368 17.3769 42.5534 17.3769ZM18.4632 53.6325C16.9436 53.6325 15.7141 52.2413 15.7141 50.5283C15.7141 48.8086 16.9436 47.4163 18.4632 47.4163C19.9759 47.4163 21.2035 48.8086 21.2035 50.5283C21.2035 52.2413 19.9759 53.6325 18.4632 53.6325ZM45.3015 81.6979C43.782 81.6979 42.5534 80.3033 42.5534 78.587C42.5534 76.874 43.782 75.4783 45.3015 75.4783C46.8172 75.4783 48.0457 76.874 48.0457 78.587C48.0457 80.3033 46.8172 81.6979 45.3015 81.6979ZM44.1521 74.5217C31.9712 74.5217 22.0961 63.3389 22.0961 49.5407C22.0961 35.748 31.9712 24.5652 44.1521 24.5652C56.3359 24.5652 66.211 35.748 66.211 49.5407C66.211 63.3389 56.3359 74.5217 44.1521 74.5217ZM69.9162 52.2192C68.4005 52.2192 67.172 50.828 67.172 49.1072C67.172 47.3908 68.4005 45.9996 69.9162 45.9996C71.4318 45.9996 72.6613 47.3908 72.6613 49.1072C72.6613 50.828 71.4318 52.2192 69.9162 52.2192Z" fill="url(#paint1_linear_252_97)"/>
<path d="M44.1512 26.4871C32.9245 26.4871 23.7935 36.8283 23.7935 49.5406C23.7935 62.2572 32.9245 72.6029 44.1512 72.6029C55.3799 72.6029 64.5158 62.2572 64.5158 49.5406C64.5158 36.8283 55.3799 26.4871 44.1512 26.4871ZM44.1512 68.9855C34.6852 68.9855 26.983 60.2644 26.983 49.5406C26.983 38.8223 34.6852 30.1001 44.1512 30.1001C53.6201 30.1001 61.3224 38.8223 61.3224 49.5406C61.3224 60.2644 53.6201 68.9855 44.1512 68.9855Z" fill="#262350"/>
<path fill-rule="evenodd" clip-rule="evenodd" d="M108.933 47.4016C109.138 48.1348 109.379 48.8459 109.636 49.5448L118.218 48.2697C117.089 46.1342 116.335 43.6991 116.117 41.0582C115.357 31.8428 121.19 23.6747 129.223 22.4847L128.126 13.0415L124.256 6.0434L122.115 6.80314L119.974 7.56953L120.354 16.0595C118.446 17.1974 116.711 18.5953 115.188 20.2187L108.229 17.047L106.895 19.0885L105.564 21.1278L110.281 27.751C109.342 29.8942 108.659 32.1801 108.262 34.5434L100.98 36.6114L100.96 39.1505L100.937 41.6908L108.19 43.9125C108.368 45.0748 108.61 46.2382 108.933 47.4016ZM117.339 23.6105C118.145 22.8253 119.36 22.9271 120.054 23.8317C120.752 24.7441 120.661 26.1209 119.859 26.9061C119.056 27.6946 117.841 27.5939 117.14 26.6849C116.448 25.7758 116.537 24.4001 117.339 23.6105Z" fill="#262350"/>
<defs>
<linearGradient id="paint0_linear_252_97" x1="97.3588" y1="32.6501" x2="166.557" y2="43.5188" gradientUnits="userSpaceOnUse">
<stop stop-color="#262350"/>
<stop offset="0.501961" stop-color="#262350"/>
<stop offset="1"/>
</linearGradient>
<linearGradient id="paint1_linear_252_97" x1="0.000976578" y1="49.5451" x2="88.3032" y2="49.5451" gradientUnits="userSpaceOnUse">
<stop stop-color="#262350"/>
<stop offset="0.309804" stop-color="#262350"/>
<stop offset="1"/>
</linearGradient>
</defs>
</svg>
