<svg width="211" height="192" viewBox="0 0 211 192" fill="none" xmlns="http://www.w3.org/2000/svg">
<path d="M97.3878 133.053C97.3878 141.367 90.3291 148.108 81.6218 148.108C72.9171 148.108 65.8572 141.367 65.8572 133.053C65.8572 124.74 72.9171 117.997 81.6218 117.997C90.3291 117.997 97.3878 124.74 97.3878 133.053Z" fill="#CE953B"/>
<path d="M76.2784 127.984C76.2784 138.672 67.2076 147.337 56.0138 147.337C44.82 147.337 35.7466 138.672 35.7466 127.984C35.7466 117.294 44.82 108.628 56.0138 108.628C67.2076 108.628 76.2784 117.294 76.2784 127.984V127.984Z" fill="#599BA3"/>
<path d="M202.365 82.7751C197.171 89.9544 188.493 94.6582 178.664 94.6582C162.763 94.6582 149.872 82.3491 149.872 67.1607C149.872 51.9772 162.763 39.6657 178.664 39.6657C183.863 39.6657 188.741 40.9829 192.949 43.2849C198.948 55.2468 202.324 68.6355 202.365 82.7751Z" fill="#599BA3"/>
<path d="M175.512 146.81C165.727 145.437 158.217 137.389 158.217 127.662C158.217 116.972 167.289 108.307 178.484 108.307C185.628 108.307 191.908 111.837 195.517 117.17C190.874 128.279 184.037 138.322 175.512 146.81Z" fill="#297B8C"/>
<path d="M199.737 104.426C194.782 103.05 191.159 98.6809 191.159 93.5056C191.159 87.4551 196.104 82.51 202.343 82.1518C202.346 82.4472 202.355 82.7415 202.355 83.0369C202.355 90.4009 201.444 97.5606 199.737 104.426Z" fill="#297B8C"/>
<path d="M183.918 97.9735C183.918 108.663 174.841 117.33 163.65 117.33C152.456 117.33 143.381 108.663 143.381 97.9735C143.381 87.2832 152.456 78.618 163.65 78.618C174.841 78.618 183.918 87.2832 183.918 97.9735Z" fill="#D9BD99"/>
<path d="M170.841 53.0253C170.841 59.3491 165.472 64.4764 158.851 64.4764C152.229 64.4764 146.858 59.3491 146.858 53.0253C146.858 46.6991 152.229 41.5731 158.851 41.5731C165.472 41.5731 170.841 46.6991 170.841 53.0253Z" fill="#D9BD99"/>
<path d="M152.97 163.469C147.213 160.055 143.381 153.964 143.381 147.018C143.381 136.327 152.456 127.662 163.65 127.662C171.982 127.662 179.141 132.467 182.255 139.332C174.318 149.139 164.357 157.374 152.97 163.469Z" fill="#D9BD99"/>
<path d="M93.6672 150.652C93.6672 161.176 84.8723 169.738 73.9182 170.001C68.2504 168.102 62.8237 165.716 57.6972 162.888C54.8446 159.552 53.1328 155.293 53.1328 150.652C53.1328 139.962 62.2062 131.295 73.3987 131.295C84.5938 131.295 93.6672 139.962 93.6672 150.652V150.652Z" fill="#D9BD99"/>
<path d="M126.351 150.652C126.351 161.341 117.279 170.007 106.085 170.007C94.8925 170.007 85.8179 161.341 85.8179 150.652C85.8179 139.962 94.8925 131.295 106.085 131.295C117.279 131.295 126.351 139.962 126.351 150.652Z" fill="#297B8C"/>
<path d="M118.685 123.541C118.685 131.855 111.628 138.594 102.922 138.594C94.2157 138.594 87.157 131.855 87.157 123.541C87.157 115.225 94.2157 108.485 102.922 108.485C111.628 108.485 118.685 115.225 118.685 123.541Z" fill="#297B8C"/>
<path d="M163.672 119.523C163.672 134.709 150.78 147.018 134.88 147.018C118.978 147.018 106.087 134.709 106.087 119.523C106.087 104.336 118.978 92.0266 134.88 92.0266C150.78 92.0266 163.672 104.336 163.672 119.523Z" fill="#599BA3"/>
<path d="M117.757 174.49C114.51 170.039 112.603 164.629 112.603 158.791C112.603 143.605 125.495 131.295 141.397 131.295C154.995 131.295 166.388 140.298 169.405 152.4C155.238 164.241 137.412 172.189 117.757 174.49Z" fill="#CE953B"/>
<path d="M42.4044 117.608C42.4044 124.596 36.4736 130.258 29.1597 130.258C26.3909 130.258 23.8206 129.447 21.695 128.06C19.5179 124.354 17.5985 120.491 15.9653 116.49C16.5583 110.028 22.2377 104.959 29.1597 104.959C36.4736 104.959 42.4044 110.622 42.4044 117.608V117.608Z" fill="#D9BD99"/>
<path d="M99.6473 166.373C99.6473 169.553 98.4717 172.469 96.515 174.751C88.0938 173.976 79.9898 172.169 72.3407 169.461C72.0932 168.471 71.9604 167.437 71.9604 166.373C71.9604 159.071 78.158 153.153 85.8045 153.153C93.4509 153.153 99.6473 159.071 99.6473 166.373V166.373Z" fill="#CE953B"/>
<path d="M116.697 110.769C116.697 118.069 110.5 123.99 102.855 123.99C95.2081 123.99 89.0105 118.069 89.0105 110.769C89.0105 103.467 95.2081 97.5469 102.855 97.5469C110.5 97.5469 116.697 103.467 116.697 110.769Z" fill="#CE953B"/>
<path d="M155.691 80.4592C155.691 91.7207 146.132 100.85 134.341 100.85C122.55 100.85 112.988 91.7207 112.988 80.4592C112.988 69.199 122.55 60.0721 134.341 60.0721C146.132 60.0721 155.691 69.199 155.691 80.4592V80.4592Z" fill="#CE953B"/>
<path d="M82.3666 93.526C82.3666 100.83 76.1703 106.749 68.5238 106.749C60.8787 106.749 54.6785 100.83 54.6785 93.526C54.6785 86.2235 60.8787 80.306 68.5238 80.306C76.1703 80.306 82.3666 86.2235 82.3666 93.526Z" fill="#D9BD99"/>
<path d="M48.3942 150.651C48.3942 152.61 47.9482 154.469 47.1477 156.14C40.2721 151.094 34.1287 145.184 28.8953 138.58C30.6225 137.84 32.5367 137.429 34.5515 137.429C42.1979 137.429 48.3942 143.349 48.3942 150.651Z" fill="#CE953B"/>
<path d="M201.948 74.5329C201.681 74.5476 201.412 74.5563 201.141 74.5563C193.495 74.5563 187.296 68.6375 187.296 61.3351C187.296 55.8976 190.732 51.2283 195.645 49.1959C198.938 57.1582 201.099 65.6646 201.948 74.5329Z" fill="#CE953B"/>
<path d="M66.664 107.011C66.664 112.638 61.8894 117.201 55.9973 117.201C50.1039 117.201 45.3281 112.638 45.3281 107.011C45.3281 101.384 50.1039 96.8221 55.9973 96.8221C61.8894 96.8221 66.664 101.384 66.664 107.011Z" fill="#297B8C"/>
<path d="M187.39 26.1056C187.39 33.2062 181.359 38.9637 173.924 38.9637C166.486 38.9637 160.458 33.2062 160.458 26.1056C160.458 19.0025 166.486 13.245 173.924 13.245C181.359 13.245 187.39 19.0025 187.39 26.1056Z" fill="#B3613E"/>
<path d="M167.319 32.6864H65.8555V23.6542H167.319V32.6864Z" fill="#292929"/>
<path d="M71.8765 142.424C61.6752 142.424 53.5647 139.5 47.7706 133.732C38.4691 124.473 38.9267 111.344 38.9512 110.789L43.6303 110.975L48.3055 111.144C48.2991 111.242 48.0336 121.131 54.5753 127.593C58.5326 131.502 64.3538 133.484 71.8765 133.484C79.5217 133.484 85.3223 131.517 89.1184 127.641C95.1239 121.503 94.5439 112.269 94.5387 112.174L94.5233 112.005L94.5259 111.854V73.1418H118.513C122.771 73.1418 127.879 71.0207 131.843 67.6058C134.42 65.3912 138.739 60.6517 138.739 53.8257C138.739 48.7477 135.95 43.3681 131.081 39.0656C126.595 35.098 121.027 32.6335 116.55 32.6335V23.6937C130.75 23.6937 148.099 37.5982 148.099 53.8257C148.099 61.4482 144.551 68.699 138.111 74.246C132.415 79.1529 125.087 82.0815 118.513 82.0815H103.887V111.716C103.987 113.464 104.313 125.132 96.0353 133.664C90.3946 139.477 82.2685 142.424 71.8765 142.424V142.424Z" fill="#292929"/>
<path d="M167.324 122.88H98.5405V113.848H167.324V122.88Z" fill="#292929"/>
<path d="M165.067 142.424L101.957 26.1072L93.6465 30.2201L154.524 142.424H165.067Z" fill="#292929"/>
<path d="M21.3384 90.6515C21.3384 96.2773 16.5613 100.838 10.6692 100.838C4.77711 100.838 0 96.2773 0 90.6515C0 85.0232 4.77711 80.4611 10.6692 80.4611C16.5613 80.4611 21.3384 85.0232 21.3384 90.6515Z" fill="#B3613E"/>
<path d="M211 104.322C211 113.551 203.17 121.029 193.509 121.029C183.845 121.029 176.015 113.551 176.015 104.322C176.015 95.0953 183.845 87.6168 193.509 87.6168C203.17 87.6168 211 95.0953 211 104.322Z" fill="#B3613E"/>
<path d="M30.7741 64.6278C30.7741 68.0513 27.8686 70.826 24.2851 70.826C20.7004 70.826 17.7949 68.0513 17.7949 64.6278C17.7949 61.2056 20.7004 58.4308 24.2851 58.4308C27.8686 58.4308 30.7741 61.2056 30.7741 64.6278Z" fill="#B3613E"/>
<path d="M161.099 6.19948C161.099 9.62052 158.195 12.3953 154.612 12.3953C151.026 12.3953 148.12 9.62052 148.12 6.19948C148.12 2.77475 151.026 0 154.612 0C158.195 0 161.099 2.77475 161.099 6.19948Z" fill="#B3613E"/>
<path d="M122.811 175.23C122.811 184.165 115.229 191.407 105.872 191.407C96.5163 191.407 88.9343 184.165 88.9343 175.23C88.9343 166.295 96.5163 159.053 105.872 159.053C115.229 159.053 122.811 166.295 122.811 175.23Z" fill="#B3613E"/>
</svg>
