<svg width="248" height="181" viewBox="0 0 248 181" fill="none" xmlns="http://www.w3.org/2000/svg">
<path d="M114.181 151.293C171.802 151.293 195.698 119.635 206.751 90.5541C185.82 98.8586 168.002 95.0999 155.309 88.5006C135.804 78.3613 128.058 52.357 114.181 30.3851C83.7098 -17.8597 0 -8.58475 0 57.7226C0 121.756 71.2721 151.293 114.181 151.293Z" fill="url(#paint0_linear_252_36)"/>
<path d="M170.898 63.5053H138.512C138.512 69.1957 143.126 73.8096 148.818 73.8096H181.204C181.204 68.1192 176.589 63.5053 170.898 63.5053Z" fill="black"/>
<path d="M170.898 25.2316H138.512C138.512 30.922 143.126 35.5372 148.818 35.5372H181.204C181.204 29.8468 176.589 25.2316 170.898 25.2316Z" fill="black"/>
<path d="M170.897 101.78H145.993C138.544 101.78 131.96 98.5232 124.659 91.2233C120.721 87.2813 113.295 79.7757 107.399 73.805C120.547 73.5169 131.153 62.7333 131.153 49.5216C131.153 36.1279 120.256 25.2316 106.862 25.2316H89.9349C89.9349 30.922 94.5475 35.5372 100.239 35.5372H106.862C114.573 35.5372 120.848 41.8104 120.848 49.5216C120.848 57.2328 114.573 63.506 106.862 63.506H95.0858C93.01 63.506 91.1359 64.7541 90.3344 66.6688C89.5316 68.5848 89.9572 70.7955 91.4149 72.2753C91.6021 72.4666 110.207 91.3425 117.373 98.5088C126.636 107.771 135.729 112.086 145.993 112.086H181.203C181.203 106.396 176.588 101.78 170.897 101.78Z" fill="black"/>
<path d="M66.0251 25.2316H48.3672C48.3672 30.922 52.981 35.5372 58.6715 35.5372H67.7957V85.9703C67.7957 94.6873 60.704 101.78 51.9831 101.78C47.2226 101.78 42.7174 99.5827 39.7366 95.9432L39.7969 96.0362C37.7695 93.21 31.7884 91.996 26.9139 94.9243L29.5463 99.3352C34.2387 107.201 42.8366 112.086 51.9831 112.086C66.3866 112.086 78.1013 100.37 78.1013 85.9703V37.3092C78.1013 30.6405 72.6925 25.2316 66.0251 25.2316Z" fill="black"/>
<path d="M234.25 35.9279C241.094 35.9279 248 42.6673 248 57.723C248 93.6792 235.548 124.607 211.99 147.165C189.585 168.62 158.674 180.437 124.955 180.437C91.2369 180.437 60.328 168.62 37.9213 147.165C22.8145 132.699 12.2758 114.792 6.65875 94.3249C27.5974 135.497 81.9947 153.205 114.182 153.205C199.602 153.205 212.293 85.1129 217.711 56.0375L218.008 54.4528C220.407 41.6563 227.894 35.9292 234.249 35.9279H234.25Z" fill="url(#paint1_linear_252_36)"/>
<defs>
<linearGradient id="paint0_linear_252_36" x1="0" y1="75.6451" x2="206.751" y2="75.6451" gradientUnits="userSpaceOnUse">
<stop stop-color="#5083C1"/>
<stop offset="0.478431" stop-color="#49C6EB"/>
<stop offset="1" stop-color="#49C6EB"/>
</linearGradient>
<linearGradient id="paint1_linear_252_36" x1="6.65744" y1="108.182" x2="248" y2="108.182" gradientUnits="userSpaceOnUse">
<stop stop-color="#49C6EB"/>
<stop offset="0.121569" stop-color="#49C6EB"/>
<stop offset="1" stop-color="#FF00FF"/>
</linearGradient>
</defs>
</svg>
